<svg xmlns="http://www.w3.org/2000/svg" xmlns:xlink="http://www.w3.org/1999/xlink" viewBox="0,0,256,256" width="64px" height="64px" fill-rule="nonzero"><g fill="#fa8b52" fill-rule="nonzero" stroke="none" stroke-width="1" stroke-linecap="butt" stroke-linejoin="miter" stroke-miterlimit="10" stroke-dasharray="" stroke-dashoffset="0" font-family="none" font-weight="none" font-size="none" text-anchor="none" style="mix-blend-mode: normal"><g transform="scale(4,4)"><path d="M31.60938,3.67188c-5.50146,-0.02424 -10.82837,1.0981 -14.9082,2.37305c-0.37371,0.11708 -0.64469,0.4415 -0.69336,0.83008c-0.15225,1.217 -0.07669,3.87834 0.09375,7.68555c0.17044,3.80721 0.46166,8.62326 0.82813,13.63672c0.73292,10.02693 1.75394,20.79126 2.74414,25.94336c0.15194,0.78956 0.6438,1.4296 1.29102,1.82031c-0.03148,0.65382 -0.05033,1.39718 0.16797,2.17773c0.14715,0.52615 0.43934,1.09526 0.98828,1.47266c0.54895,0.3774 1.26705,0.48806 2.02148,0.37891c1.94839,-0.27853 6.01129,-1.40522 10.4082,-2.78711c4.39768,-1.38213 9.02599,-3.00329 11.86328,-4.29297c0.00065,0 0.0013,0 0.00195,0c1.8053,-0.82357 4.71148,-2.64845 6.39258,-5.75c1.67899,-3.09766 1.92145,-7.47299 -1.45898,-12.68555c-0.00424,-0.00654 -0.00747,-0.01299 -0.01172,-0.01953c-1.03971,-2.04037 -2.42809,-3.63959 -3.76562,-4.96484c5.731,-4.22788 7.05621,-9.03691 6.07617,-12.96094c-0.95835,-3.83717 -3.59421,-6.58017 -5.625,-7.92969c-0.16894,-0.13219 -0.27387,-0.29642 -0.45508,-0.42187c-0.01683,-0.01165 -0.03588,-0.0177 -0.05273,-0.0293c-0.0059,-0.00337 -0.01368,-0.01424 -0.01953,-0.01758c-0.03468,-0.02037 -0.07055,-0.03863 -0.10742,-0.05469c-4.74535,-3.21963 -10.34409,-4.38035 -15.7793,-4.4043zM31.54492,5.71289c5.21566,0.02101 10.53896,1.09985 14.88477,4.10742l0.00195,0.00195c0.00065,0.00065 0.0013,0.0013 0.00195,0.00195c0.68454,0.47419 1.22774,0.99188 1.68945,1.5332c0.03637,0.04265 0.09777,0.07807 0.13281,0.12109c0.0011,0.001 0.00083,0.00291 0.00195,0.00391c1.43866,1.76882 1.75704,3.85744 1.20898,6.0918c-0.73123,2.98115 -3.17236,6.18829 -6.99609,8.57813c-0.29487,0.18455 -0.47266,0.50907 -0.46947,0.85691c0.00319,0.34785 0.18689,0.66905 0.4851,0.84817c0,0 4.75176,2.90375 7.09375,7.54102c0.00832,0.01647 0.01714,0.03232 0.02539,0.04883c1.24438,2.48921 1.12495,4.55418 0.0332,6.63477c-1.09175,2.08059 -3.26979,4.13689 -6.19336,6.08594c-4.72544,3.15061 -14.17043,5.50003 -20.97656,6.20117c-0.0806,0.00823 -0.15487,-0.00451 -0.22852,-0.01758c-0.03221,-0.00813 -0.0648,-0.01465 -0.09766,-0.01953c-0.25551,-0.08078 -0.44911,-0.28558 -0.50391,-0.57031c-0.93995,-4.88988 -1.98427,-15.71611 -2.71484,-25.71094c-0.36529,-4.99741 -0.65497,-9.79932 -0.82422,-13.58008c-0.154,-3.43998 -0.15621,-5.71908 -0.09766,-6.68359c3.82901,-1.13903 8.60274,-2.09412 13.54297,-2.07422zM30.3418,7.375c-0.42663,0.0096 -0.84625,0.02846 -1.25586,0.05469c-1.63844,0.1049 -3.12223,0.33141 -4.30273,0.59375c-0.42118,0.09399 -0.73457,0.44754 -0.77734,0.87695c-0.51576,5.15763 -0.03405,12.1534 1.25195,16.39063c0.15193,0.49927 0.66222,0.79779 1.17188,0.68555c3.56364,-0.78772 7.34971,-2.58894 10.54883,-4.84766c3.19912,-2.25872 5.82542,-4.94832 6.94922,-7.75781c0.12761,-0.31891 0.08262,-0.68099 -0.11914,-0.95899c-2.22997,-3.06621 -5.90131,-4.38453 -9.49414,-4.8418c-1.34731,-0.17148 -2.69277,-0.2241 -3.97266,-0.19531zM31.5957,9.37695c0.81559,0.01742 1.6443,0.0733 2.46484,0.17773c3.04373,0.38738 5.86744,1.47763 7.67969,3.56836c-1.00793,2.07934 -3.13254,4.40779 -5.91602,6.37305c-2.69579,1.90335 -5.86161,3.36366 -8.82031,4.17773c-0.92976,-3.69993 -1.35689,-9.35766 -1.01172,-13.80273c0.95693,-0.18029 1.98297,-0.36225 3.21875,-0.44141c0.76672,-0.04911 1.56918,-0.07015 2.38477,-0.05273zM30.42578,10.80664c-0.98752,-0.00118 -1.88924,0.06652 -2.62109,0.21289c-0.46768,0.09318 -0.80452,0.5036 -0.80469,0.98047c0,1.33333 0.47223,6.01392 1.0293,8.24219c0.07015,0.28013 0.25796,0.51627 0.51513,0.64766c0.25716,0.13139 0.55857,0.1452 0.82667,0.03789c1.42075,-0.5683 3.52745,-1.82454 5.50195,-3.16211c0.98725,-0.66878 1.92726,-1.35319 2.70117,-1.98047c0.77391,-0.62728 1.36558,-1.14212 1.75781,-1.73047c0.29476,-0.44186 0.1927,-1.03705 -0.23242,-1.35547c-1.34133,-1.006 -3.39706,-1.43153 -5.54102,-1.69141c-1.07198,-0.12994 -2.1453,-0.19999 -3.13281,-0.20117zM9.92969,11.08789c-0.35967,-0.00719 -0.69549,0.17934 -0.87944,0.48848c-0.18396,0.30915 -0.18771,0.69327 -0.00982,1.00595c0.17789,0.31268 0.51,0.50573 0.86974,0.50556l1.99805,0.02148c0.35942,0.00717 0.69504,-0.17912 0.87907,-0.48794c0.18403,-0.30882 0.18815,-0.69265 0.0108,-1.00535c-0.17735,-0.3127 -0.50889,-0.50616 -0.86838,-0.50671zM31.03711,12.87109c0.70391,-0.00809 1.46822,0.02276 2.2793,0.12109c1.42996,0.17333 2.38696,0.57997 3.30859,0.94531c-0.14076,0.12424 -0.1465,0.16159 -0.30859,0.29297c-0.71046,0.57585 -1.61421,1.23519 -2.56445,1.87891c-1.46577,0.99294 -2.79609,1.69694 -3.95117,2.28516c-0.3165,-1.92913 -0.59142,-4.21669 -0.67773,-5.41211c0.56663,-0.05619 1.21015,-0.10324 1.91406,-0.11133zM11.94336,16.20703c-0.00977,0.00051 -0.01954,0.00116 -0.0293,0.00195l-1.99805,0.02734c-0.35731,0.00517 -0.68472,0.20059 -0.85886,0.51263c-0.17414,0.31205 -0.16856,0.6933 0.01465,1.00011c0.18321,0.30681 0.51619,0.49256 0.8735,0.48726l1.99805,-0.0293c0.36064,0.0051 0.69608,-0.18438 0.87789,-0.49587c0.18181,-0.3115 0.18181,-0.69676 0,-1.00825c-0.18181,-0.3115 -0.51725,-0.50097 -0.87789,-0.49587zM51.55273,16.62305c0.04045,0.1349 0.12016,0.25392 0.1543,0.39063c0.82497,3.30316 -0.01934,7.17256 -5.56641,11.09766c-0.77865,-0.64729 -1.03739,-0.80931 -1.47461,-1.10352c3.51335,-2.51074 5.93699,-5.6743 6.74219,-8.95703c0.11668,-0.47568 0.09952,-0.95076 0.14453,-1.42773zM12.09766,21.30664c-0.02345,-0.00017 -0.0469,0.00048 -0.07031,0.00195l-2,0.07422c-0.36393,0.00338 -0.69729,0.20419 -0.87041,0.52432c-0.17312,0.32013 -0.15868,0.70903 0.03772,1.01543c0.1964,0.3064 0.54374,0.48193 0.90691,0.4583l2,-0.07422c0.54681,-0.00873 0.98521,-0.45505 0.98414,-1.00193c-0.00107,-0.54688 -0.44121,-0.99148 -0.98804,-0.99807zM12.31836,26.4043c-0.02348,0.00048 -0.04693,0.00178 -0.07031,0.00391l-1.99609,0.11328c-0.3643,0.00976 -0.69446,0.21691 -0.86173,0.54069c-0.16728,0.32377 -0.14519,0.71291 0.05764,1.01568c0.20283,0.30277 0.55431,0.47124 0.91737,0.43972l1.99805,-0.11328c0.55228,-0.0124 0.98994,-0.47018 0.97754,-1.02246c-0.0124,-0.55228 -0.47018,-0.98994 -1.02246,-0.97754zM12.63672,31.5c-0.02345,-0.00017 -0.04691,0.00048 -0.07031,0.00195l-1.99414,0.15234c-0.3604,0.02183 -0.68105,0.23622 -0.83894,0.56092c-0.15789,0.3247 -0.12851,0.7093 0.07687,1.00625c0.20539,0.29695 0.55488,0.46014 0.91441,0.42697l1.99414,-0.15039c0.54282,-0.03408 0.9589,-0.49572 0.93659,-1.03916c-0.02231,-0.54344 -0.47483,-0.96942 -1.01862,-0.95889zM28.85547,32.80273c-1.0042,0.00949 -2.00533,0.07402 -2.98828,0.20508c-0.42388,0.05705 -0.76457,0.37732 -0.84766,0.79688c-0.29023,1.45114 -0.4005,4.09355 -0.01172,7.07422c0.38878,2.98067 1.27681,6.25769 3.20313,8.73438c0.23223,0.29877 0.61321,0.44088 0.98437,0.36719c2.60686,-0.52137 6.17731,-1.66561 9.30859,-3.49219c3.13128,-1.82658 5.90763,-4.37545 6.48242,-7.82422c0.03878,-0.23405 -0.00691,-0.47426 -0.12891,-0.67773c-0.55659,-0.92764 -1.52589,-1.60837 -2.78125,-2.26953c-1.25536,-0.66116 -2.81404,-1.25759 -4.55859,-1.74219c-1.74456,-0.4846 -3.67336,-0.85729 -5.6582,-1.04297c-0.99242,-0.09284 -1.9997,-0.13839 -3.00391,-0.12891zM29.2793,34.84375c0.79487,-0.01389 1.59455,0.00942 2.39258,0.08398c1.85891,0.17369 3.6801,0.51976 5.31055,0.97266c1.63044,0.4529 3.07177,1.01272 4.16016,1.58594c0.93228,0.491 1.42118,0.96276 1.71289,1.30859c-0.60438,2.35104 -2.6691,4.39747 -5.35937,5.9668c-2.62994,1.53413 -5.65596,2.52637 -7.99805,3.06055c-1.34889,-1.99538 -2.17295,-4.64884 -2.50586,-7.20117c-0.30587,-2.34496 -0.22721,-4.37408 -0.07617,-5.63867c0.77836,-0.07369 1.56842,-0.12478 2.36328,-0.13867zM13.05469,36.58789c-0.02348,0.00048 -0.04693,0.00178 -0.07031,0.00391l-1.99023,0.1875c-0.55013,0.05124 -0.95456,0.53874 -0.90332,1.08887c0.05124,0.55013 0.53874,0.95456 1.08887,0.90332l1.99219,-0.1875c0.54032,-0.04578 0.94573,-0.51382 0.91395,-1.05514c-0.03178,-0.54133 -0.48917,-0.95871 -1.03113,-0.94095zM32.99609,36.81836c-1.03406,-0.00743 -2.08038,0.05936 -3.12109,0.18945c-0.49999,0.06304 -0.87497,0.48824 -0.875,0.99219v7c-0.00011,0.30794 0.14166,0.59876 0.3843,0.78837c0.24264,0.18961 0.55911,0.25687 0.85789,0.18233c4.15218,-1.03804 8.22716,-3.08178 11.3125,-5.13867c0.27814,-0.1855 0.44519,-0.49771 0.44519,-0.83203c0,-0.33432 -0.16705,-0.64653 -0.44519,-0.83203c-2.45801,-1.63867 -5.45641,-2.32733 -8.55859,-2.34961zM33.11328,38.91992c2.08306,0.0204 4.05903,0.35992 5.76953,1.12305c-2.35356,1.4123 -5.05357,2.67993 -7.88281,3.53711v-4.57812c0.7121,-0.06027 1.41893,-0.08883 2.11328,-0.08203zM52.01367,41.54492c0.17213,1.83058 -0.25899,3.35985 -0.96484,4.66211c-1.3664,2.52095 -3.96015,4.19638 -5.46484,4.88281c-2.66289,1.21026 -7.28309,2.83936 -11.63477,4.20703c-4.35232,1.36787 -8.53783,2.49117 -10.08984,2.71289c-0.00065,0 -0.0013,0 -0.00195,0c-0.42057,0.06085 -0.54746,-0.00831 -0.60352,-0.04687c-0.05605,-0.03854 -0.12746,-0.12068 -0.19531,-0.36328c-0.08311,-0.29718 -0.09533,-0.77213 -0.08984,-1.2793c7.02437,-0.75711 16.319,-2.97664 21.58594,-6.48828c3.07643,-2.05095 5.51301,-4.26565 6.85352,-6.82031c0.24944,-0.47537 0.44244,-0.96735 0.60547,-1.4668zM13.55664,41.66797c-0.02287,0.00182 -0.04567,0.00442 -0.06836,0.00781l-1.98828,0.21875c-0.35525,0.03934 -0.66251,0.26524 -0.80601,0.59258c-0.1435,0.32735 -0.10142,0.70639 0.11037,0.9943c0.21179,0.28791 0.56112,0.44093 0.91634,0.4014l1.98828,-0.2207c0.54387,-0.0502 0.94688,-0.52745 0.90528,-1.07205c-0.0416,-0.5446 -0.51244,-0.95509 -1.05762,-0.92209zM14.24219,46.74023c-0.05682,-0.00158 -0.11366,0.00169 -0.16992,0.00977l-1.98437,0.25195c-0.54797,0.06957 -0.93579,0.57019 -0.86621,1.11816c0.06957,0.54797 0.57019,0.93579 1.11816,0.86621l1.98438,-0.25195c0.52366,-0.05638 0.91385,-0.50922 0.8922,-1.03546c-0.02165,-0.52624 -0.44772,-0.9455 -0.97423,-0.95868zM14.91406,51.80078c-0.05687,-0.00093 -0.11372,0.00299 -0.16992,0.01172l-1.98047,0.28516c-0.36358,0.03939 -0.67666,0.27409 -0.81644,0.61202c-0.13978,0.33794 -0.08396,0.72522 0.14556,1.00993c0.22952,0.28471 0.59614,0.42144 0.95604,0.35656l1.97852,-0.2832c0.52132,-0.06606 0.90259,-0.52431 0.87276,-1.04894c-0.02983,-0.52464 -0.4606,-0.93671 -0.98604,-0.94325z"></path></g></g></svg>